<svg width="59" height="44" viewBox="0 0 59 44" fill="none" xmlns="http://www.w3.org/2000/svg">
<path d="M52.9948 12.375C53.8542 12.8524 54.6372 13.4349 55.3438 14.1224C56.0504 14.8099 56.6424 15.5738 57.1198 16.4141C57.5972 17.2543 57.9792 18.1424 58.2656 19.0781C58.5521 20.0139 58.6858 20.9878 58.6667 22H55C55 21.0069 54.809 20.0616 54.4271 19.1641C54.0451 18.2665 53.52 17.4931 52.8516 16.8438C52.1832 16.1944 51.4002 15.6693 50.5026 15.2682C49.605 14.8672 48.6597 14.6667 47.6667 14.6667C46.6545 14.6667 45.7092 14.8576 44.8307 15.2396C43.9523 15.6215 43.1788 16.1467 42.5104 16.8151C41.842 17.4835 41.3168 18.2665 40.9349 19.1641C40.553 20.0616 40.3524 21.0069 40.3333 22C40.3333 23.7378 39.9418 25.3898 39.1589 26.9557C38.3759 28.5217 37.2778 29.8203 35.8646 30.8516C37.1059 31.4818 38.2231 32.2552 39.2161 33.1719C40.2092 34.0885 41.0686 35.1198 41.7943 36.2656C42.52 37.4115 43.0642 38.6337 43.4271 39.9323C43.7899 41.2309 43.9809 42.5868 44 44H40.3333C40.3333 42.4913 40.0469 41.0686 39.474 39.7318C38.901 38.395 38.1085 37.23 37.0964 36.237C36.0842 35.2439 34.9193 34.4609 33.6016 33.888C32.2839 33.3151 30.8611 33.0191 29.3333 33C27.8247 33 26.4019 33.2865 25.0651 33.8594C23.7283 34.4323 22.5634 35.2248 21.5703 36.237C20.5773 37.2491 19.7943 38.4141 19.2214 39.7318C18.6484 41.0495 18.3524 42.4722 18.3333 44H14.6667C14.6667 42.6059 14.8576 41.2595 15.2396 39.9609C15.6215 38.6623 16.1658 37.4401 16.8724 36.2943C17.579 35.1484 18.4288 34.1172 19.4219 33.2005C20.4149 32.2839 21.5417 31.5009 22.8021 30.8516C21.408 29.8203 20.3194 28.5217 19.5365 26.9557C18.7535 25.3898 18.3524 23.7378 18.3333 22C18.3333 21.0069 18.1424 20.0616 17.7604 19.1641C17.3785 18.2665 16.8533 17.4931 16.1849 16.8438C15.5165 16.1944 14.7335 15.6693 13.8359 15.2682C12.9384 14.8672 11.9931 14.6667 11 14.6667C9.98785 14.6667 9.04253 14.8576 8.16406 15.2396C7.28559 15.6215 6.51215 16.1467 5.84375 16.8151C5.17535 17.4835 4.65017 18.2665 4.26823 19.1641C3.88628 20.0616 3.68576 21.0069 3.66667 22H0C0 21.0069 0.133681 20.0425 0.401042 19.1068C0.668403 18.171 1.0408 17.283 1.51823 16.4427C1.99566 15.6024 2.59722 14.8385 3.32292 14.151C4.04861 13.4635 4.8316 12.8715 5.67188 12.375C5.04167 11.7066 4.55469 10.9332 4.21094 10.0547C3.86719 9.17622 3.68576 8.2691 3.66667 7.33333C3.66667 6.34028 3.85764 5.39497 4.23958 4.4974C4.62153 3.59983 5.1467 2.82639 5.8151 2.17708C6.48351 1.52778 7.25694 1.0026 8.13542 0.601562C9.01389 0.200521 9.96875 0 11 0C11.9931 0 12.9384 0.190972 13.8359 0.572917C14.7335 0.954861 15.5069 1.48003 16.1562 2.14844C16.8056 2.81684 17.3307 3.59983 17.7318 4.4974C18.1328 5.39497 18.3333 6.34028 18.3333 7.33333C18.3333 8.2691 18.1615 9.17622 17.8177 10.0547C17.474 10.9332 16.9774 11.7066 16.3281 12.375C17.8941 13.2344 19.1736 14.4184 20.1667 15.9271C21.1979 14.3993 22.5156 13.1962 24.1198 12.3177C25.724 11.4392 27.4618 11 29.3333 11C31.1858 11 32.9141 11.4392 34.5182 12.3177C36.1224 13.1962 37.4497 14.3993 38.5 15.9271C39.4931 14.4184 40.7726 13.2344 42.3385 12.375C41.7083 11.7066 41.2214 10.9332 40.8776 10.0547C40.5339 9.17622 40.3524 8.2691 40.3333 7.33333C40.3333 6.34028 40.5243 5.39497 40.9062 4.4974C41.2882 3.59983 41.8134 2.82639 42.4818 2.17708C43.1502 1.52778 43.9236 1.0026 44.8021 0.601562C45.6806 0.200521 46.6354 0 47.6667 0C48.6597 0 49.605 0.190972 50.5026 0.572917C51.4002 0.954861 52.1736 1.48003 52.8229 2.14844C53.4722 2.81684 53.9974 3.59983 54.3984 4.4974C54.7995 5.39497 55 6.34028 55 7.33333C55 8.2691 54.8281 9.17622 54.4844 10.0547C54.1406 10.9332 53.6441 11.7066 52.9948 12.375ZM7.33333 7.33333C7.33333 7.84896 7.42882 8.32639 7.61979 8.76562C7.81076 9.20486 8.06858 9.58681 8.39323 9.91146C8.71788 10.2361 9.10938 10.5035 9.56771 10.7135C10.026 10.9236 10.5035 11.0191 11 11C11.5156 11 11.9931 10.9045 12.4323 10.7135C12.8715 10.5226 13.2535 10.2648 13.5781 9.9401C13.9028 9.61545 14.1701 9.22396 14.3802 8.76562C14.5903 8.30729 14.6858 7.82986 14.6667 7.33333C14.6667 6.81771 14.5712 6.34028 14.3802 5.90104C14.1892 5.46181 13.9314 5.07986 13.6068 4.75521C13.2821 4.43056 12.8906 4.16319 12.4323 3.95312C11.974 3.74306 11.4965 3.64757 11 3.66667C10.4844 3.66667 10.0069 3.76215 9.56771 3.95312C9.12847 4.1441 8.74653 4.40191 8.42188 4.72656C8.09722 5.05122 7.82986 5.44271 7.61979 5.90104C7.40972 6.35938 7.31424 6.83681 7.33333 7.33333ZM29.3333 29.3333C30.3264 29.3333 31.2717 29.1424 32.1693 28.7604C33.0668 28.3785 33.8403 27.8533 34.4896 27.1849C35.1389 26.5165 35.6641 25.7431 36.0651 24.8646C36.4661 23.9861 36.6667 23.0312 36.6667 22C36.6667 21.0069 36.4757 20.0616 36.0938 19.1641C35.7118 18.2665 35.1866 17.4931 34.5182 16.8438C33.8498 16.1944 33.0668 15.6693 32.1693 15.2682C31.2717 14.8672 30.3264 14.6667 29.3333 14.6667C28.3212 14.6667 27.3759 14.8576 26.4974 15.2396C25.6189 15.6215 24.8455 16.1467 24.1771 16.8151C23.5087 17.4835 22.9835 18.2665 22.6016 19.1641C22.2196 20.0616 22.0191 21.0069 22 22C22 23.0122 22.191 23.9575 22.5729 24.8359C22.9549 25.7144 23.48 26.4878 24.1484 27.1562C24.8168 27.8247 25.5903 28.3498 26.4688 28.7318C27.3472 29.1137 28.3021 29.3142 29.3333 29.3333ZM44 7.33333C44 7.84896 44.0955 8.32639 44.2865 8.76562C44.4774 9.20486 44.7352 9.58681 45.0599 9.91146C45.3845 10.2361 45.776 10.5035 46.2344 10.7135C46.6927 10.9236 47.1701 11.0191 47.6667 11C48.1823 11 48.6597 10.9045 49.099 10.7135C49.5382 10.5226 49.9201 10.2648 50.2448 9.9401C50.5694 9.61545 50.8368 9.22396 51.0469 8.76562C51.2569 8.30729 51.3524 7.82986 51.3333 7.33333C51.3333 6.81771 51.2379 6.34028 51.0469 5.90104C50.8559 5.46181 50.5981 5.07986 50.2734 4.75521C49.9488 4.43056 49.5573 4.16319 49.099 3.95312C48.6406 3.74306 48.1632 3.64757 47.6667 3.66667C47.151 3.66667 46.6736 3.76215 46.2344 3.95312C45.7951 4.1441 45.4132 4.40191 45.0885 4.72656C44.7639 5.05122 44.4965 5.44271 44.2865 5.90104C44.0764 6.35938 43.9809 6.83681 44 7.33333Z" fill="white"/>
</svg>
