<svg width="103" height="102" viewBox="0 0 103 102" fill="none" xmlns="http://www.w3.org/2000/svg">
<rect x="2" y="1.5" width="99" height="99" rx="49.5" stroke="#A306E4" stroke-width="3"/>
<path d="M75.4948 41.375C76.3542 41.8524 77.1372 42.4349 77.8438 43.1224C78.5504 43.8099 79.1424 44.5738 79.6198 45.4141C80.0972 46.2543 80.4792 47.1424 80.7656 48.0781C81.0521 49.0139 81.1858 49.9878 81.1667 51H77.5C77.5 50.0069 77.309 49.0616 76.9271 48.1641C76.5451 47.2665 76.02 46.4931 75.3516 45.8438C74.6832 45.1944 73.9002 44.6693 73.0026 44.2682C72.105 43.8672 71.1597 43.6667 70.1667 43.6667C69.1545 43.6667 68.2092 43.8576 67.3307 44.2396C66.4523 44.6215 65.6788 45.1467 65.0104 45.8151C64.342 46.4835 63.8168 47.2665 63.4349 48.1641C63.053 49.0616 62.8524 50.0069 62.8333 51C62.8333 52.7378 62.4418 54.3898 61.6589 55.9557C60.8759 57.5217 59.7778 58.8203 58.3646 59.8516C59.6059 60.4818 60.7231 61.2552 61.7161 62.1719C62.7092 63.0885 63.5686 64.1198 64.2943 65.2656C65.02 66.4115 65.5642 67.6337 65.9271 68.9323C66.2899 70.2309 66.4809 71.5868 66.5 73H62.8333C62.8333 71.4913 62.5469 70.0686 61.974 68.7318C61.401 67.395 60.6085 66.23 59.5964 65.237C58.5842 64.2439 57.4193 63.4609 56.1016 62.888C54.7839 62.3151 53.3611 62.0191 51.8333 62C50.3247 62 48.9019 62.2865 47.5651 62.8594C46.2283 63.4323 45.0634 64.2248 44.0703 65.237C43.0773 66.2491 42.2943 67.4141 41.7214 68.7318C41.1484 70.0495 40.8524 71.4722 40.8333 73H37.1667C37.1667 71.6059 37.3576 70.2595 37.7396 68.9609C38.1215 67.6623 38.6658 66.4401 39.3724 65.2943C40.079 64.1484 40.9288 63.1172 41.9219 62.2005C42.9149 61.2839 44.0417 60.5009 45.3021 59.8516C43.908 58.8203 42.8194 57.5217 42.0365 55.9557C41.2535 54.3898 40.8524 52.7378 40.8333 51C40.8333 50.0069 40.6424 49.0616 40.2604 48.1641C39.8785 47.2665 39.3533 46.4931 38.6849 45.8438C38.0165 45.1944 37.2335 44.6693 36.3359 44.2682C35.4384 43.8672 34.4931 43.6667 33.5 43.6667C32.4878 43.6667 31.5425 43.8576 30.6641 44.2396C29.7856 44.6215 29.0122 45.1467 28.3438 45.8151C27.6753 46.4835 27.1502 47.2665 26.7682 48.1641C26.3863 49.0616 26.1858 50.0069 26.1667 51H22.5C22.5 50.0069 22.6337 49.0425 22.901 48.1068C23.1684 47.171 23.5408 46.283 24.0182 45.4427C24.4957 44.6024 25.0972 43.8385 25.8229 43.151C26.5486 42.4635 27.3316 41.8715 28.1719 41.375C27.5417 40.7066 27.0547 39.9332 26.7109 39.0547C26.3672 38.1762 26.1858 37.2691 26.1667 36.3333C26.1667 35.3403 26.3576 34.395 26.7396 33.4974C27.1215 32.5998 27.6467 31.8264 28.3151 31.1771C28.9835 30.5278 29.7569 30.0026 30.6354 29.6016C31.5139 29.2005 32.4688 29 33.5 29C34.4931 29 35.4384 29.191 36.3359 29.5729C37.2335 29.9549 38.0069 30.48 38.6562 31.1484C39.3056 31.8168 39.8307 32.5998 40.2318 33.4974C40.6328 34.395 40.8333 35.3403 40.8333 36.3333C40.8333 37.2691 40.6615 38.1762 40.3177 39.0547C39.974 39.9332 39.4774 40.7066 38.8281 41.375C40.3941 42.2344 41.6736 43.4184 42.6667 44.9271C43.6979 43.3993 45.0156 42.1962 46.6198 41.3177C48.224 40.4392 49.9618 40 51.8333 40C53.6858 40 55.4141 40.4392 57.0182 41.3177C58.6224 42.1962 59.9497 43.3993 61 44.9271C61.9931 43.4184 63.2726 42.2344 64.8385 41.375C64.2083 40.7066 63.7214 39.9332 63.3776 39.0547C63.0339 38.1762 62.8524 37.2691 62.8333 36.3333C62.8333 35.3403 63.0243 34.395 63.4062 33.4974C63.7882 32.5998 64.3134 31.8264 64.9818 31.1771C65.6502 30.5278 66.4236 30.0026 67.3021 29.6016C68.1806 29.2005 69.1354 29 70.1667 29C71.1597 29 72.105 29.191 73.0026 29.5729C73.9002 29.9549 74.6736 30.48 75.3229 31.1484C75.9722 31.8168 76.4974 32.5998 76.8984 33.4974C77.2995 34.395 77.5 35.3403 77.5 36.3333C77.5 37.2691 77.3281 38.1762 76.9844 39.0547C76.6406 39.9332 76.1441 40.7066 75.4948 41.375ZM29.8333 36.3333C29.8333 36.849 29.9288 37.3264 30.1198 37.7656C30.3108 38.2049 30.5686 38.5868 30.8932 38.9115C31.2179 39.2361 31.6094 39.5035 32.0677 39.7135C32.526 39.9236 33.0035 40.0191 33.5 40C34.0156 40 34.4931 39.9045 34.9323 39.7135C35.3715 39.5226 35.7535 39.2648 36.0781 38.9401C36.4028 38.6155 36.6701 38.224 36.8802 37.7656C37.0903 37.3073 37.1858 36.8299 37.1667 36.3333C37.1667 35.8177 37.0712 35.3403 36.8802 34.901C36.6892 34.4618 36.4314 34.0799 36.1068 33.7552C35.7821 33.4306 35.3906 33.1632 34.9323 32.9531C34.474 32.7431 33.9965 32.6476 33.5 32.6667C32.9844 32.6667 32.5069 32.7622 32.0677 32.9531C31.6285 33.1441 31.2465 33.4019 30.9219 33.7266C30.5972 34.0512 30.3299 34.4427 30.1198 34.901C29.9097 35.3594 29.8142 35.8368 29.8333 36.3333ZM51.8333 58.3333C52.8264 58.3333 53.7717 58.1424 54.6693 57.7604C55.5668 57.3785 56.3403 56.8533 56.9896 56.1849C57.6389 55.5165 58.1641 54.7431 58.5651 53.8646C58.9661 52.9861 59.1667 52.0312 59.1667 51C59.1667 50.0069 58.9757 49.0616 58.5938 48.1641C58.2118 47.2665 57.6866 46.4931 57.0182 45.8438C56.3498 45.1944 55.5668 44.6693 54.6693 44.2682C53.7717 43.8672 52.8264 43.6667 51.8333 43.6667C50.8212 43.6667 49.8759 43.8576 48.9974 44.2396C48.1189 44.6215 47.3455 45.1467 46.6771 45.8151C46.0087 46.4835 45.4835 47.2665 45.1016 48.1641C44.7196 49.0616 44.5191 50.0069 44.5 51C44.5 52.0122 44.691 52.9575 45.0729 53.8359C45.4549 54.7144 45.98 55.4878 46.6484 56.1562C47.3168 56.8247 48.0903 57.3498 48.9688 57.7318C49.8472 58.1137 50.8021 58.3142 51.8333 58.3333ZM66.5 36.3333C66.5 36.849 66.5955 37.3264 66.7865 37.7656C66.9774 38.2049 67.2352 38.5868 67.5599 38.9115C67.8845 39.2361 68.276 39.5035 68.7344 39.7135C69.1927 39.9236 69.6701 40.0191 70.1667 40C70.6823 40 71.1597 39.9045 71.599 39.7135C72.0382 39.5226 72.4201 39.2648 72.7448 38.9401C73.0694 38.6155 73.3368 38.224 73.5469 37.7656C73.7569 37.3073 73.8524 36.8299 73.8333 36.3333C73.8333 35.8177 73.7379 35.3403 73.5469 34.901C73.3559 34.4618 73.0981 34.0799 72.7734 33.7552C72.4488 33.4306 72.0573 33.1632 71.599 32.9531C71.1406 32.7431 70.6632 32.6476 70.1667 32.6667C69.651 32.6667 69.1736 32.7622 68.7344 32.9531C68.2951 33.1441 67.9132 33.4019 67.5885 33.7266C67.2639 34.0512 66.9965 34.4427 66.7865 34.901C66.5764 35.3594 66.4809 35.8368 66.5 36.3333Z" fill="#A306E4"/>
</svg>
