<svg width="13" height="13" viewBox="0 0 13 13" fill="none" xmlns="http://www.w3.org/2000/svg">
<path d="M6.4992 12.5465C9.83868 12.5465 12.5457 9.83948 12.5457 6.5C12.5457 3.16052 9.83868 0.4535 6.4992 0.4535C3.15972 0.4535 0.4527 3.16052 0.4527 6.5C0.4527 9.83948 3.15972 12.5465 6.4992 12.5465Z" stroke="#E4E4E4" stroke-width="0.9" stroke-linecap="round" stroke-linejoin="round"/>
<path d="M7.40631 4.78885C7.13276 4.69246 6.84009 4.66308 6.55284 4.70316C6.26559 4.74323 5.99213 4.85161 5.75541 5.01918C5.51869 5.18676 5.32561 5.40866 5.19235 5.66626C5.05909 5.92387 4.98954 6.20967 4.98954 6.49971C4.98954 6.78974 5.05909 7.07554 5.19235 7.33315C5.32561 7.59075 5.51869 7.81265 5.75541 7.98023C5.99213 8.1478 6.26559 8.25618 6.55284 8.29625C6.84009 8.33633 7.13276 8.30695 7.40631 8.21056" stroke="#E4E4E4" stroke-width="0.9" stroke-linecap="round" stroke-linejoin="round"/>
</svg>
