<svg width="102" height="102" viewBox="0 0 102 102" fill="none" xmlns="http://www.w3.org/2000/svg">
<rect x="1.5" y="1.5" width="99" height="99" rx="49.5" stroke="#A306E4" stroke-width="3"/>
<path d="M68.2162 37.5674L65.0047 39.9755C64.2468 40.5439 63.325 40.8512 62.3776 40.8512H55.0264C54.314 40.8514 53.6191 41.072 53.0369 41.4825C52.4547 41.8931 52.0137 42.4735 51.7742 43.1445C51.5347 43.8154 51.5085 44.544 51.6992 45.2304C51.8899 45.9168 52.2881 46.5274 52.8394 46.9787L57.2177 50.5602C58.9135 51.9476 60.2353 53.7372 61.0627 55.766C61.8902 57.7948 62.1969 59.9984 61.9551 62.1761L61.8544 63.089C61.7179 64.3146 61.4522 65.5225 61.0619 66.6924L60.5541 68.216M31 47.4187L38.0886 46.2366C38.7762 46.1218 39.4813 46.1729 40.1451 46.3855C40.809 46.5982 41.4125 46.9663 41.9055 47.4592C42.3984 47.9521 42.7665 48.5557 42.9792 49.2195C43.1918 49.8834 43.2429 50.5885 43.1281 51.2761L42.8326 53.0428C42.5771 54.5838 42.8218 56.1661 43.5309 57.558C44.2401 58.9498 45.3763 60.078 46.7731 60.7772C47.8888 61.3341 48.7808 62.2553 49.3015 63.3884C49.8222 64.5214 49.9404 65.7982 49.6366 67.0076L48.5135 71.4998" stroke="#A306E4" stroke-width="4.37838"/>
<path d="M51.7965 70.4054C62.678 70.4054 71.4992 61.5842 71.4992 50.7027C71.4992 39.8212 62.678 31 51.7965 31C40.915 31 32.0938 39.8212 32.0938 50.7027C32.0938 61.5842 40.915 70.4054 51.7965 70.4054Z" stroke="#A306E4" stroke-width="4.37838"/>
</svg>
