<svg width="44" height="44" viewBox="0 0 44 44" fill="none" xmlns="http://www.w3.org/2000/svg">
<path d="M38.5012 8.79961L35.2738 11.2196C34.5122 11.7908 33.5858 12.0996 32.6338 12.0996H25.2462C24.5303 12.0999 23.8319 12.3215 23.2469 12.7341C22.6618 13.1466 22.2186 13.73 21.9779 14.4043C21.7373 15.0785 21.711 15.8107 21.9026 16.5005C22.0942 17.1902 22.4944 17.8039 23.0484 18.2574L27.4484 21.8566C29.1525 23.2509 30.4809 25.0493 31.3124 27.0882C32.1439 29.127 32.4522 31.3414 32.2092 33.5299L32.108 34.4473C31.9708 35.679 31.7038 36.8928 31.3116 38.0685L30.8012 39.5997M1.10112 18.6996L8.22473 17.5116C8.91573 17.3963 9.62428 17.4476 10.2914 17.6613C10.9586 17.875 11.5651 18.2449 12.0605 18.7403C12.5558 19.2357 12.9258 19.8422 13.1395 20.5093C13.3532 21.1765 13.4045 21.885 13.2891 22.576L12.9921 24.3514C12.7354 25.9001 12.9813 27.4902 13.694 28.889C14.4066 30.2877 15.5484 31.4214 16.9521 32.1241C18.0733 32.6838 18.9697 33.6095 19.493 34.7482C20.0163 35.8868 20.1351 37.1699 19.8298 38.3853L18.7012 42.8997" stroke="white" stroke-width="4.37838"/>
<path d="M22.0003 41.7999C32.9356 41.7999 41.8004 32.9351 41.8004 21.9998C41.8004 11.0646 32.9356 2.19978 22.0003 2.19978C11.0651 2.19978 2.20027 11.0646 2.20027 21.9998C2.20027 32.9351 11.0651 41.7999 22.0003 41.7999Z" stroke="white" stroke-width="4.37838"/>
</svg>
