<svg width="26" height="26" viewBox="0 0 26 26" fill="none" xmlns="http://www.w3.org/2000/svg">
<circle cx="12.6762" cy="12.6762" r="12.6762" fill="#933FFD"/>
<path d="M8.85133 6.60038C8.85113 7.00595 8.68983 7.39482 8.40291 7.68145C8.11598 7.96809 7.72695 8.129 7.32139 8.1288C6.91582 8.1286 6.52695 7.96729 6.24032 7.68037C5.95368 7.39345 5.79277 7.00442 5.79297 6.59885C5.79317 6.19329 5.95448 5.80441 6.2414 5.51778C6.52832 5.23115 6.91735 5.07023 7.32292 5.07043C7.72848 5.07064 8.11735 5.23194 8.40399 5.51886C8.69062 5.80578 8.85154 6.19482 8.85133 6.60038ZM8.89721 9.26116H5.83884V18.8338H8.89721V9.26116ZM13.7294 9.26116H10.6864V18.8338H13.6988V13.8105C13.6988 11.0121 17.3459 10.7521 17.3459 13.8105V18.8338H20.3661V12.7706C20.3661 8.0531 14.9681 8.22896 13.6988 10.5457L13.7294 9.26116Z" fill="white"/>
</svg>
