<svg width="17" height="13" viewBox="0 0 17 13" fill="none" xmlns="http://www.w3.org/2000/svg">
<path d="M14.625 0H1.625C0.73125 0 0 0.73125 0 1.625V11.375C0 12.2688 0.73125 13 1.625 13H14.625C15.5188 13 16.25 12.2688 16.25 11.375V1.625C16.25 0.73125 15.5188 0 14.625 0ZM14.3 3.45312L8.98625 6.77625C8.45813 7.10938 7.79187 7.10938 7.26375 6.77625L1.95 3.45312C1.86853 3.40739 1.79718 3.3456 1.74028 3.27149C1.68338 3.19739 1.64211 3.11251 1.61897 3.02199C1.59582 2.93147 1.59128 2.8372 1.60563 2.74487C1.61997 2.65255 1.6529 2.5641 1.70242 2.48487C1.75193 2.40564 1.81701 2.33728 1.89372 2.28393C1.97042 2.23058 2.05715 2.19335 2.14865 2.17449C2.24016 2.15563 2.33454 2.15554 2.42609 2.17421C2.51763 2.19288 2.60444 2.22993 2.68125 2.28312L8.125 5.6875L13.5688 2.28312C13.6456 2.22993 13.7324 2.19288 13.8239 2.17421C13.9155 2.15554 14.0098 2.15563 14.1013 2.17449C14.1929 2.19335 14.2796 2.23058 14.3563 2.28393C14.433 2.33728 14.4981 2.40564 14.5476 2.48487C14.5971 2.5641 14.63 2.65255 14.6444 2.74487C14.6587 2.8372 14.6542 2.93147 14.631 3.02199C14.6079 3.11251 14.5666 3.19739 14.5097 3.27149C14.4528 3.3456 14.3815 3.40739 14.3 3.45312Z" fill="white"/>
</svg>
