<svg
      width="14"
      height="13"
      viewBox="0 0 14 13"
      fill="none"
      xmlns="http://www.w3.org/2000/svg"
    >
      <path
        d="M9.60246 8.34L9.25451 8.68642C9.25451 8.68642 8.42632 9.50926 6.16658 7.26251C3.90684 5.01577 4.73503 4.19294 4.73503 4.19294L4.95374 3.97423C5.49439 3.43739 5.54563 2.57479 5.0738 1.94466L4.11025 0.657642C3.52601 -0.122371 2.39805 -0.225608 1.72892 0.439697L0.52831 1.63266C0.197187 1.96302 -0.0245811 2.38973 0.00218403 2.86385C0.0710087 4.07746 0.620076 6.68745 3.68201 9.73256C6.92977 12.9612 9.97717 13.0897 11.2229 12.9734C11.6175 12.9367 11.9601 12.7364 12.2361 12.4611L13.322 11.3813C14.0562 10.6525 13.8497 9.4022 12.9106 8.89213L11.45 8.09759C10.8337 7.76341 10.0842 7.86129 9.60246 8.34Z"
        fill="white"
      />
    </svg>