<svg width="102" height="102" viewBox="0 0 102 102" fill="none" xmlns="http://www.w3.org/2000/svg">
<rect x="1.5" y="1.5" width="99" height="99" rx="49.5" stroke="#A306E4" stroke-width="3"/>
<path d="M74.9948 41.375C75.8542 41.8524 76.6372 42.4349 77.3438 43.1224C78.0504 43.8099 78.6424 44.5738 79.1198 45.4141C79.5972 46.2543 79.9792 47.1424 80.2656 48.0781C80.5521 49.0139 80.6858 49.9878 80.6667 51H77C77 50.0069 76.809 49.0616 76.4271 48.1641C76.0451 47.2665 75.52 46.4931 74.8516 45.8438C74.1832 45.1944 73.4002 44.6693 72.5026 44.2682C71.605 43.8672 70.6597 43.6667 69.6667 43.6667C68.6545 43.6667 67.7092 43.8576 66.8307 44.2396C65.9523 44.6215 65.1788 45.1467 64.5104 45.8151C63.842 46.4835 63.3168 47.2665 62.9349 48.1641C62.553 49.0616 62.3524 50.0069 62.3333 51C62.3333 52.7378 61.9418 54.3898 61.1589 55.9557C60.3759 57.5217 59.2778 58.8203 57.8646 59.8516C59.1059 60.4818 60.2231 61.2552 61.2161 62.1719C62.2092 63.0885 63.0686 64.1198 63.7943 65.2656C64.52 66.4115 65.0642 67.6337 65.4271 68.9323C65.7899 70.2309 65.9809 71.5868 66 73H62.3333C62.3333 71.4913 62.0469 70.0686 61.474 68.7318C60.901 67.395 60.1085 66.23 59.0964 65.237C58.0842 64.2439 56.9193 63.4609 55.6016 62.888C54.2839 62.3151 52.8611 62.0191 51.3333 62C49.8247 62 48.4019 62.2865 47.0651 62.8594C45.7283 63.4323 44.5634 64.2248 43.5703 65.237C42.5773 66.2491 41.7943 67.4141 41.2214 68.7318C40.6484 70.0495 40.3524 71.4722 40.3333 73H36.6667C36.6667 71.6059 36.8576 70.2595 37.2396 68.9609C37.6215 67.6623 38.1658 66.4401 38.8724 65.2943C39.579 64.1484 40.4288 63.1172 41.4219 62.2005C42.4149 61.2839 43.5417 60.5009 44.8021 59.8516C43.408 58.8203 42.3194 57.5217 41.5365 55.9557C40.7535 54.3898 40.3524 52.7378 40.3333 51C40.3333 50.0069 40.1424 49.0616 39.7604 48.1641C39.3785 47.2665 38.8533 46.4931 38.1849 45.8438C37.5165 45.1944 36.7335 44.6693 35.8359 44.2682C34.9384 43.8672 33.9931 43.6667 33 43.6667C31.9878 43.6667 31.0425 43.8576 30.1641 44.2396C29.2856 44.6215 28.5122 45.1467 27.8438 45.8151C27.1753 46.4835 26.6502 47.2665 26.2682 48.1641C25.8863 49.0616 25.6858 50.0069 25.6667 51H22C22 50.0069 22.1337 49.0425 22.401 48.1068C22.6684 47.171 23.0408 46.283 23.5182 45.4427C23.9957 44.6024 24.5972 43.8385 25.3229 43.151C26.0486 42.4635 26.8316 41.8715 27.6719 41.375C27.0417 40.7066 26.5547 39.9332 26.2109 39.0547C25.8672 38.1762 25.6858 37.2691 25.6667 36.3333C25.6667 35.3403 25.8576 34.395 26.2396 33.4974C26.6215 32.5998 27.1467 31.8264 27.8151 31.1771C28.4835 30.5278 29.2569 30.0026 30.1354 29.6016C31.0139 29.2005 31.9688 29 33 29C33.9931 29 34.9384 29.191 35.8359 29.5729C36.7335 29.9549 37.5069 30.48 38.1562 31.1484C38.8056 31.8168 39.3307 32.5998 39.7318 33.4974C40.1328 34.395 40.3333 35.3403 40.3333 36.3333C40.3333 37.2691 40.1615 38.1762 39.8177 39.0547C39.474 39.9332 38.9774 40.7066 38.3281 41.375C39.8941 42.2344 41.1736 43.4184 42.1667 44.9271C43.1979 43.3993 44.5156 42.1962 46.1198 41.3177C47.724 40.4392 49.4618 40 51.3333 40C53.1858 40 54.9141 40.4392 56.5182 41.3177C58.1224 42.1962 59.4497 43.3993 60.5 44.9271C61.4931 43.4184 62.7726 42.2344 64.3385 41.375C63.7083 40.7066 63.2214 39.9332 62.8776 39.0547C62.5339 38.1762 62.3524 37.2691 62.3333 36.3333C62.3333 35.3403 62.5243 34.395 62.9062 33.4974C63.2882 32.5998 63.8134 31.8264 64.4818 31.1771C65.1502 30.5278 65.9236 30.0026 66.8021 29.6016C67.6806 29.2005 68.6354 29 69.6667 29C70.6597 29 71.605 29.191 72.5026 29.5729C73.4002 29.9549 74.1736 30.48 74.8229 31.1484C75.4722 31.8168 75.9974 32.5998 76.3984 33.4974C76.7995 34.395 77 35.3403 77 36.3333C77 37.2691 76.8281 38.1762 76.4844 39.0547C76.1406 39.9332 75.6441 40.7066 74.9948 41.375ZM29.3333 36.3333C29.3333 36.849 29.4288 37.3264 29.6198 37.7656C29.8108 38.2049 30.0686 38.5868 30.3932 38.9115C30.7179 39.2361 31.1094 39.5035 31.5677 39.7135C32.026 39.9236 32.5035 40.0191 33 40C33.5156 40 33.9931 39.9045 34.4323 39.7135C34.8715 39.5226 35.2535 39.2648 35.5781 38.9401C35.9028 38.6155 36.1701 38.224 36.3802 37.7656C36.5903 37.3073 36.6858 36.8299 36.6667 36.3333C36.6667 35.8177 36.5712 35.3403 36.3802 34.901C36.1892 34.4618 35.9314 34.0799 35.6068 33.7552C35.2821 33.4306 34.8906 33.1632 34.4323 32.9531C33.974 32.7431 33.4965 32.6476 33 32.6667C32.4844 32.6667 32.0069 32.7622 31.5677 32.9531C31.1285 33.1441 30.7465 33.4019 30.4219 33.7266C30.0972 34.0512 29.8299 34.4427 29.6198 34.901C29.4097 35.3594 29.3142 35.8368 29.3333 36.3333ZM51.3333 58.3333C52.3264 58.3333 53.2717 58.1424 54.1693 57.7604C55.0668 57.3785 55.8403 56.8533 56.4896 56.1849C57.1389 55.5165 57.6641 54.7431 58.0651 53.8646C58.4661 52.9861 58.6667 52.0312 58.6667 51C58.6667 50.0069 58.4757 49.0616 58.0938 48.1641C57.7118 47.2665 57.1866 46.4931 56.5182 45.8438C55.8498 45.1944 55.0668 44.6693 54.1693 44.2682C53.2717 43.8672 52.3264 43.6667 51.3333 43.6667C50.3212 43.6667 49.3759 43.8576 48.4974 44.2396C47.6189 44.6215 46.8455 45.1467 46.1771 45.8151C45.5087 46.4835 44.9835 47.2665 44.6016 48.1641C44.2196 49.0616 44.0191 50.0069 44 51C44 52.0122 44.191 52.9575 44.5729 53.8359C44.9549 54.7144 45.48 55.4878 46.1484 56.1562C46.8168 56.8247 47.5903 57.3498 48.4688 57.7318C49.3472 58.1137 50.3021 58.3142 51.3333 58.3333ZM66 36.3333C66 36.849 66.0955 37.3264 66.2865 37.7656C66.4774 38.2049 66.7352 38.5868 67.0599 38.9115C67.3845 39.2361 67.776 39.5035 68.2344 39.7135C68.6927 39.9236 69.1701 40.0191 69.6667 40C70.1823 40 70.6597 39.9045 71.099 39.7135C71.5382 39.5226 71.9201 39.2648 72.2448 38.9401C72.5694 38.6155 72.8368 38.224 73.0469 37.7656C73.2569 37.3073 73.3524 36.8299 73.3333 36.3333C73.3333 35.8177 73.2379 35.3403 73.0469 34.901C72.8559 34.4618 72.5981 34.0799 72.2734 33.7552C71.9488 33.4306 71.5573 33.1632 71.099 32.9531C70.6406 32.7431 70.1632 32.6476 69.6667 32.6667C69.151 32.6667 68.6736 32.7622 68.2344 32.9531C67.7951 33.1441 67.4132 33.4019 67.0885 33.7266C66.7639 34.0512 66.4965 34.4427 66.2865 34.901C66.0764 35.3594 65.9809 35.8368 66 36.3333Z" fill="#A306E4"/>
</svg>
