<svg width="26" height="26" viewBox="0 0 26 26" fill="none" xmlns="http://www.w3.org/2000/svg">
<circle cx="12.5754" cy="12.5754" r="12.5754" fill="#933FFD"/>
<path d="M12.9211 14.6653L15.2507 17.314C16.113 18.2949 16.5449 18.7857 16.9969 18.6657C17.4482 18.5464 17.6034 17.9011 17.9131 16.6098L19.6306 9.44686C20.1084 7.4578 20.347 6.46398 19.8167 5.97318C19.2864 5.48238 18.3673 5.84743 16.5291 6.5768L8.00229 9.96353C6.53205 10.5477 5.79693 10.8395 5.75022 11.3411C5.74472 11.3922 5.74472 11.4437 5.75022 11.4949C5.79549 11.9971 6.52917 12.2911 7.99798 12.8796C8.66268 13.1462 8.99539 13.2798 9.23396 13.5349C9.26079 13.5637 9.28665 13.5934 9.31157 13.624C9.53146 13.8971 9.62487 14.2564 9.81243 14.9721L10.1638 16.3137C10.3456 17.0108 10.4369 17.36 10.6762 17.4074C10.9155 17.4549 11.1231 17.166 11.5392 16.5875L12.9211 14.6653ZM12.9211 14.6653L12.6933 14.4281C12.4331 14.1565 12.3031 14.0214 12.3031 13.8533C12.3031 13.6851 12.4324 13.5493 12.6933 13.2784L15.2608 10.6024" fill="#933FFD"/>
<path d="M12.9211 14.6653L15.2507 17.314C16.113 18.2949 16.5449 18.7857 16.9969 18.6657C17.4482 18.5464 17.6034 17.9011 17.9131 16.6098L19.6306 9.44686C20.1084 7.4578 20.347 6.46398 19.8167 5.97318C19.2864 5.48238 18.3673 5.84743 16.5291 6.5768L8.00229 9.96353C6.53205 10.5477 5.79693 10.8395 5.75022 11.3411C5.74472 11.3922 5.74472 11.4437 5.75022 11.4949C5.79549 11.9971 6.52917 12.2911 7.99798 12.8796C8.66268 13.1462 8.99539 13.2798 9.23396 13.5349C9.26079 13.5637 9.28665 13.5934 9.31157 13.624C9.53146 13.8971 9.62487 14.2564 9.81243 14.9721L10.1638 16.3137C10.3456 17.0108 10.4369 17.36 10.6762 17.4074C10.9155 17.4549 11.1231 17.166 11.5392 16.5875L12.9211 14.6653ZM12.9211 14.6653L12.6933 14.4281C12.4331 14.1565 12.3031 14.0214 12.3031 13.8533C12.3031 13.6851 12.4324 13.5493 12.6933 13.2784L15.2608 10.6024" stroke="white" stroke-width="1.07789" stroke-linecap="round" stroke-linejoin="round"/>
</svg>
