<svg width="26" height="26" viewBox="0 0 26 26" fill="none" xmlns="http://www.w3.org/2000/svg">
<circle cx="12.5754" cy="12.5754" r="12.5754" fill="#933FFD"/>
<path d="M16.1229 7.77521C15.6318 7.21437 15.3611 6.49425 15.3612 5.74878H13.1407V14.6593C13.124 15.1416 12.9205 15.5986 12.5733 15.9338C12.226 16.2689 11.7622 16.4561 11.2796 16.4558C10.2592 16.4558 9.41123 15.6222 9.41123 14.5875C9.41123 13.3515 10.6041 12.4245 11.8329 12.8054V10.5346C9.35374 10.2041 7.18359 12.1299 7.18359 14.5875C7.18359 16.9804 9.16691 18.6835 11.2724 18.6835C13.5288 18.6835 15.3612 16.851 15.3612 14.5875V10.0675C16.2616 10.7141 17.3426 11.0611 18.4511 11.0592V8.83873C18.4511 8.83873 17.1002 8.9034 16.1229 7.77521Z" fill="white"/>
</svg>
