<svg width="26" height="26" viewBox="0 0 26 26" fill="none" xmlns="http://www.w3.org/2000/svg">
<circle cx="12.6762" cy="12.6762" r="12.6762" fill="#933FFD"/>
<path fill-rule="evenodd" clip-rule="evenodd" d="M20.6728 8.2721C20.5824 7.9333 20.4047 7.62414 20.1575 7.37542C19.9103 7.1267 19.6022 6.94711 19.264 6.85454C18.0217 6.51916 13.0382 6.51917 13.0382 6.51917C13.0382 6.51917 8.05464 6.51916 6.81238 6.85454C6.47415 6.94711 6.16608 7.1267 5.91889 7.37542C5.67169 7.62414 5.494 7.9333 5.40351 8.2721C5.07031 9.52378 5.07031 12.1329 5.07031 12.1329C5.07031 12.1329 5.07031 14.742 5.40351 15.9937C5.49389 16.3326 5.67153 16.6419 5.91874 16.8908C6.16594 17.1396 6.47406 17.3193 6.81238 17.412C8.05537 17.7466 13.0382 17.7466 13.0382 17.7466C13.0382 17.7466 18.0217 17.7466 19.264 17.412C19.6023 17.3193 19.9104 17.1396 20.1576 16.8908C20.4048 16.6419 20.5825 16.3326 20.6728 15.9937C21.006 14.7435 21.006 12.1329 21.006 12.1329C21.006 12.1329 21.006 9.52378 20.6728 8.2721ZM11.4084 9.76354V14.5022L15.5734 12.1329L11.4084 9.76354Z" fill="white"/>
</svg>
